#!OML:ASF H:\Terrain\Patient Classification 1\Terrain2\Thursday\justin.ASF
:FULLY-SPECIFIED
:DEGREES
1078
root 19.0156 20.8597 -6.09202 179.334 9.23058 183.584
lowerback 4.19498 1.96542 3.3731
upperback 2.23634 2.92228 2.38985
thorax -0.0117032 1.54786 0.445013
lowerneck -13.8209 -2.26678 -6.93046
upperneck 40.0295 4.36894 -0.383358
head 16.8126 2.34948 2.3479
rclavicle -7.8023e-015 3.97569e-016
rhumerus -27.4123 -16.7215 -79.0017
rradius 22.9294
rwrist -6.71794
rhand -21.1094 14.9433
rfingers 7.12502
rthumb 5.26868 -14.9712
lclavicle -7.8023e-015 3.97569e-016
lhumerus -36.6945 14.0274 80.1535
lradius 26.2105
lwrist -1.30315
lhand -18.9657 22.018
lfingers 7.12502
lthumb 7.33822 51.8707
rfemur 0.918052 -0.273483 20.8874
rtibia 53.4668
rfoot 6.567 5.56754
rtoes 6.47769
lfemur -16.832 4.72584 -17.9245
ltibia 22.1371
lfoot 0.375871 -4.55831
ltoes 1.29861
1079
root 19.0075 20.8791 -6.18248 179.284 9.21587 183.498
lowerback 4.36576 1.88857 3.24054
upperback 2.27327 2.82361 2.36817
thorax -0.0760426 1.4978 0.494204
lowerneck -13.8361 -2.13894 -6.81456
upperneck 39.9068 4.55403 -0.545026
head 16.7497 2.41398 2.28024
rclavicle -1.48592e-014 -1.35174e-014
rhumerus -27.4367 -17.0081 -78.9779
rradius 22.5167
rwrist -6.39665
rhand -21.2775 14.5462
rfingers 7.12502
rthumb 5.1064 -15.3723
lclavicle -1.48592e-014 -1.35174e-014
lhumerus -36.726 13.7311 80.3117
lradius 26.547
lwrist -1.15529
lhand -18.1979 21.7802
lfingers 7.12502
lthumb 8.07937 51.6058
rfemur -0.210101 -0.164829 20.7139
rtibia 55.399
rfoot 6.21692 4.52721
rtoes 7.62383
lfemur -16.1656 4.81071 -18.0571
ltibia 21.5955
lfoot 0.391185 -4.61551
ltoes 2.60142
1080
root 19.0001 20.8952 -6.26965 179.276 9.19983 183.601
lowerback 4.46149 1.80147 3.19
upperback 2.34307 2.71862 2.4704
thorax -0.0667366 1.44932 0.629374
lowerneck -13.8957 -2.0562 -6.77926
upperneck 39.8379 4.73598 -0.748181
head 16.7317 2.45935 2.21241
rclavicle 3.8266e-015 -1.51076e-014
rhumerus -27.3078 -17.4369 -78.8089
rradius 22.0199
rwrist -5.55269
rhand -21.1033 13.9065
rfingers 7.12502
rthumb 5.27464 -16.0079
lclavicle 3.8266e-015 -1.51076e-014
lhumerus -36.6457 13.8245 80.3299
lradius 26.5257
lwrist -1.63151
lhand -17.4651 21.3932
lfingers 7.12502
lthumb 8.78655 51.1903
rfemur -1.32054 -0.187974 20.7318
rtibia 57.0866
rfoot 5.21798 3.85096
rtoes 5.35929
lfemur -15.6329 4.92724 -17.9867
ltibia 21.224
lfoot 0.209166 -4.79592
ltoes 2.6434
1081
root 18.9962 20.9096 -6.356 179.185 9.06983 183.562
lowerback 4.5923 1.76271 3.0897
upperback 2.40164 2.67217 2.48162
thorax -0.0852372 1.42744 0.695057
lowerneck -13.8271 -2.06857 -6.92791
upperneck 39.764 4.70825 -0.6801
head 16.6709 2.43428 2.25784
rclavicle 4.47266e-016 6.75868e-015
rhumerus -27.3506 -18.2642 -78.4662
rradius 21.5828
rwrist -4.37079
rhand -20.7266 13.7204
rfingers 7.12502
rthumb 5.63833 -16.1846
lclavicle 4.47266e-016 6.75868e-015
lhumerus -36.5802 13.3537 80.5367
lradius 26.734
lwrist -1.55786
lhand -18.1376 22.1359
lfingers 7.12502
lthumb 8.13756 51.9592
rfemur -2.31537 -0.55074 20.5861
rtibia 58.508
rfoot 3.9152 3.11132
rtoes 1.60924
lfemur -15.1291 5.22271 -18.1103
ltibia 20.9926
lfoot -0.0945955 -5.29257
ltoes 0.910253
1082
root 18.9994 20.9174 -6.44025 179.085 8.82582 183.704
lowerback 4.80526 1.6763 3.15071
upperback 2.43754 2.57834 2.53666
thorax -0.167948 1.38404 0.714614
lowerneck -13.7353 -2.01906 -7.08212
upperneck 39.6318 4.72059 -0.530547
head 16.5659 2.43524 2.34284
rclavicle -2.98177e-016 6.36111e-015
rhumerus -27.5648 -18.765 -78.2289
rradius 21.4362
rwrist -3.59505
rhand -20.5734 13.9129
rfingers 7.12502
rthumb 5.78627 -15.9881
lclavicle -2.98177e-016 6.36111e-015
lhumerus -36.5785 12.7593 80.8211
lradius 27.1652
lwrist -1.13187
lhand -17.9623 23.2085
lfingers 7.12502
lthumb 8.30676 53.0251
rfemur -3.10805 -0.932702 20.7334
rtibia 59.6952
rfoot 2.58475 1.72424
rtoes 1.67658
lfemur -14.6163 5.31422 -17.9904
ltibia 20.7512
lfoot -0.271926 -5.64907
ltoes -0.0120804
1083
root 19.0014 20.9277 -6.52748 179.099 8.62652 183.581
lowerback 4.85569 1.5473 2.82568
upperback 2.4308 2.39519 2.58066
thorax -0.220082 1.28905 0.947433
lowerneck -13.7982 -1.83581 -6.93211
upperneck 39.5496 5.00948 -0.706343
head 16.5359 2.5481 2.28541
rclavicle -8.19987e-015 -3.53837e-014
rhumerus -27.7076 -18.5526 -78.2354
rradius 21.3185
rwrist -3.54631
rhand -20.7511 14.4791
rfingers 7.12502
rthumb 5.61466 -15.4265
lclavicle -8.19987e-015 -3.53837e-014
lhumerus -36.5941 12.5837 80.969
lradius 27.3281
lwrist -0.620236
lhand -17.1098 22.4448
lfingers 7.12502
lthumb 9.12942 52.2272
rfemur -3.99332 -1.20228 20.5966
rtibia 60.7252
rfoot 1.07786 0.638812
rtoes 1.66368
lfemur -14.1668 4.9388 -18.1175
ltibia 20.4088
lfoot -0.261924 -5.438
ltoes 3.07976
1084
root 18.9974 20.9422 -6.61575 179.144 8.43327 183.186
lowerback 4.83106 1.43432 2.3058
upperback 2.38324 2.212 2.54192
thorax -0.27386 1.1887 1.20631
lowerneck -13.8138 -1.68389 -6.62738
upperneck 39.3995 5.31725 -1.19704
head 16.4795 2.65228 2.06327
rclavicle -3.64273e-014 -2.90226e-014
rhumerus -27.8607 -18.1673 -78.2731
rradius 21.2692
rwrist -3.59211
rhand -20.8536 14.5773
rfingers 7.12502
rthumb 5.51567 -15.3309
lclavicle -3.64273e-014 -2.90226e-014
lhumerus -36.7046 12.1339 81.223
lradius 27.6087
lwrist 0.0368806
lhand -17.4026 21.0776
lfingers 7.12502
lthumb 8.84682 50.8721
rfemur -4.97312 -1.51017 20.0776
rtibia 61.636
rfoot -0.309035 0.00662443
rtoes 0.816996
lfemur -13.7661 4.61558 -18.6027
ltibia 20.0223
lfoot -0.298029 -5.23586
ltoes 5.87481
1085
root 18.9961 20.9547 -6.69753 179.153 8.1497 182.951
lowerback 4.85436 1.32802 1.98084
upperback 2.38125 2.05385 2.5291
thorax -0.298949 1.10579 1.38177
lowerneck -13.7428 -1.62388 -6.49944
upperneck 39.189 5.4414 -1.52921
head 16.3668 2.67622 1.90553
rclavicle -2.3059e-014 -1.31198e-014
rhumerus -28.0074 -17.9071 -78.2859
rradius 21.4298
rwrist -3.47838
rhand -20.6538 14.2544
rfingers 7.12502
rthumb 5.70857 -15.6487
lclavicle -2.3059e-014 -1.31198e-014
lhumerus -36.7638 11.4309 81.5911
lradius 28.2093
lwrist 0.607178
lhand -17.6898 21.3394
lfingers 7.12502
lthumb 8.56972 51.1454
rfemur -5.93933 -1.88826 19.7658
rtibia 62.4314
rfoot -1.3911 -0.648902
rtoes -0.336068
lfemur -13.3196 4.5226 -18.944
ltibia 19.5838
lfoot -0.34354 -5.34204
ltoes 5.26445
1086
root 18.9938 20.9679 -6.78093 179.245 7.84267 182.968
lowerback 4.72992 1.21065 1.94227
upperback 2.40206 1.89089 2.53432
thorax -0.208006 1.02458 1.42054
lowerneck -13.7682 -1.57213 -6.57773
upperneck 39.1989 5.46932 -1.35265
head 16.3654 2.69615 2.00071
rclavicle -2.88735e-014 7.95139e-016
rhumerus -28.097 -17.7611 -78.3766
rradius 21.5516
rwrist -3.52249
rhand -20.6712 14.6251
rfingers 7.12502
rthumb 5.69178 -15.2785
lclavicle -2.88735e-014 7.95139e-016
lhumerus -36.7721 10.9275 81.7756
lradius 28.8009
lwrist 1.02631
lhand -17.4464 21.9004
lfingers 7.12502
lthumb 8.80461 51.6968
rfemur -6.90473 -2.27184 19.7257
rtibia 63.0765
rfoot -2.22353 -1.23136
rtoes -0.788061
lfemur -12.8862 4.30049 -18.9755
ltibia 19.1013
lfoot -0.25206 -5.38705
ltoes 6.56411
